<svg xmlns="http://www.w3.org/2000/svg" width="600" height="300" viewBox="0 0 600 300" style="background-color: #0d1117; font-family: sans-serif;">
    
        <text x="300" y="290" fill="#c9d1d9" text-anchor="middle">Optimization Steps (Entropic Descent)</text>
        <text x="10" y="20" fill="#c9d1d9" font-size="14">Cost Function Minimization</text>
    <path d="M 40 40 L 40 40 L 50.4 128.65896689377718 L 60.8 181.5337538054053 L 71.2 202.19575716542562 L 81.6 215.06932342019707 L 92 234.5078644554922 L 102.4 243.5858324216972 L 112.80000000000001 246.4854978683474 L 123.2 250.297828747416 L 133.6 253.35853572056038 L 144 254.6996226549748 L 154.4 254.68120733529065 L 164.8 255.20694618905188 L 175.20000000000002 255.59390314116968 L 185.60000000000002 255.48388726135684 L 196 255.25170125261005 L 206.4 255.397406388813 L 216.8 255.58535836714324 L 227.2 255.56669378141171 L 237.6 255.50868209905474 L 248 255.5765653357187 L 258.4 255.26137535312856 L 268.8 254.9793557157297 L 279.20000000000005 254.5418672919317 L 289.6 254.13253188433987 L 300 254.50098988021864 L 310.40000000000003 255.03563271141581 L 320.8 254.47792282448225 L 331.20000000000005 254.21265216616592 L 341.59999999999997 254.71747622265787 L 352 254.79941873472865 L 362.4 255.22524208740734 L 372.8 255.16522954713415 L 383.2 255.26548313090595 L 393.6 254.77673111976802 L 404 255.31064167376203 L 414.4 255.0704423404243 L 424.8 255.1370869503443 L 435.2 255.57554104598447 L 445.6 255.58681722206086 L 456 255.37695602036288 L 466.4 254.85571919543088 L 476.8 254.39625636463785 L 487.2 254.16215627114968 L 497.6 254.7005540932558 L 508 255.3997302553483 L 518.4000000000001 255.52047743618104 L 528.8 255.59999972673089 L 539.2 255.42503812557192 L 549.5999999999999 255.48084279615844" stroke="#8b949e" stroke-width="2" fill="none" /><circle cx="40" cy="40" r="3" fill="#238636" />
<circle cx="50.4" cy="128.65896689377718" r="3" fill="#238636" />
<circle cx="60.8" cy="181.5337538054053" r="3" fill="#238636" />
<circle cx="71.2" cy="202.19575716542562" r="3" fill="#238636" />
<circle cx="81.6" cy="215.06932342019707" r="3" fill="#238636" />
<circle cx="92" cy="234.5078644554922" r="3" fill="#238636" />
<circle cx="102.4" cy="243.5858324216972" r="3" fill="#238636" />
<circle cx="112.80000000000001" cy="246.4854978683474" r="3" fill="#238636" />
<circle cx="123.2" cy="250.297828747416" r="3" fill="#238636" />
<circle cx="133.6" cy="253.35853572056038" r="3" fill="#238636" />
<circle cx="144" cy="254.6996226549748" r="3" fill="#238636" />
<circle cx="154.4" cy="254.68120733529065" r="3" fill="#238636" />
<circle cx="164.8" cy="255.20694618905188" r="3" fill="#238636" />
<circle cx="175.20000000000002" cy="255.59390314116968" r="3" fill="#238636" />
<circle cx="185.60000000000002" cy="255.48388726135684" r="3" fill="#238636" />
<circle cx="196" cy="255.25170125261005" r="3" fill="#238636" />
<circle cx="206.4" cy="255.397406388813" r="3" fill="#238636" />
<circle cx="216.8" cy="255.58535836714324" r="3" fill="#238636" />
<circle cx="227.2" cy="255.56669378141171" r="3" fill="#238636" />
<circle cx="237.6" cy="255.50868209905474" r="3" fill="#238636" />
<circle cx="248" cy="255.5765653357187" r="3" fill="#238636" />
<circle cx="258.4" cy="255.26137535312856" r="3" fill="#238636" />
<circle cx="268.8" cy="254.9793557157297" r="3" fill="#238636" />
<circle cx="279.20000000000005" cy="254.5418672919317" r="3" fill="#238636" />
<circle cx="289.6" cy="254.13253188433987" r="3" fill="#238636" />
<circle cx="300" cy="254.50098988021864" r="3" fill="#238636" />
<circle cx="310.40000000000003" cy="255.03563271141581" r="3" fill="#238636" />
<circle cx="320.8" cy="254.47792282448225" r="3" fill="#238636" />
<circle cx="331.20000000000005" cy="254.21265216616592" r="3" fill="#238636" />
<circle cx="341.59999999999997" cy="254.71747622265787" r="3" fill="#238636" />
<circle cx="352" cy="254.79941873472865" r="3" fill="#238636" />
<circle cx="362.4" cy="255.22524208740734" r="3" fill="#238636" />
<circle cx="372.8" cy="255.16522954713415" r="3" fill="#238636" />
<circle cx="383.2" cy="255.26548313090595" r="3" fill="#238636" />
<circle cx="393.6" cy="254.77673111976802" r="3" fill="#238636" />
<circle cx="404" cy="255.31064167376203" r="3" fill="#238636" />
<circle cx="414.4" cy="255.0704423404243" r="3" fill="#238636" />
<circle cx="424.8" cy="255.1370869503443" r="3" fill="#238636" />
<circle cx="435.2" cy="255.57554104598447" r="3" fill="#238636" />
<circle cx="445.6" cy="255.58681722206086" r="3" fill="#238636" />
<circle cx="456" cy="255.37695602036288" r="3" fill="#238636" />
<circle cx="466.4" cy="254.85571919543088" r="3" fill="#238636" />
<circle cx="476.8" cy="254.39625636463785" r="3" fill="#238636" />
<circle cx="487.2" cy="254.16215627114968" r="3" fill="#238636" />
<circle cx="497.6" cy="254.7005540932558" r="3" fill="#238636" />
<circle cx="508" cy="255.3997302553483" r="3" fill="#238636" />
<circle cx="518.4000000000001" cy="255.52047743618104" r="3" fill="#238636" />
<circle cx="528.8" cy="255.59999972673089" r="3" fill="#238636" />
<circle cx="539.2" cy="255.42503812557192" r="3" fill="#238636" />
<circle cx="549.5999999999999" cy="255.48084279615844" r="3" fill="#238636" />
    </svg>