<svg xmlns="http://www.w3.org/2000/svg" width="400" height="400" viewBox="0 0 400 400" style="background-color: #0d1117; font-family: sans-serif;">
    
        <line x1="0" y1="200" x2="400" y2="200" stroke="#30363d" stroke-width="1" />
        <line x1="200" y1="0" x2="200" y2="400" stroke="#30363d" stroke-width="1" />
        <text x="10" y="20" fill="#c9d1d9" font-size="14">Vacuum Fluctuations (Omega Noise)</text>
    <circle cx="194.67" cy="203.44" r="2" fill="#61dafb" opacity="0.3533370084348054" />
<circle cx="198.65" cy="201.31" r="2" fill="#61dafb" opacity="0.3135212579627481" />
<circle cx="199.77" cy="199.74" r="2" fill="#61dafb" opacity="0.30232850674947936" />
<circle cx="200.84" cy="200.31" r="2" fill="#61dafb" opacity="0.3084461283521188" />
<circle cx="195.69" cy="200.26" r="2" fill="#61dafb" opacity="0.34310169466306817" />
<circle cx="195.42" cy="202.92" r="2" fill="#61dafb" opacity="0.3458371522614175" />
<circle cx="191.54" cy="206.06" r="2" fill="#61dafb" opacity="0.38458648071016327" />
<circle cx="199.48" cy="193.45" r="2" fill="#61dafb" opacity="0.3052448452156081" />
<circle cx="199.40" cy="190.36" r="2" fill="#61dafb" opacity="0.30599794888910026" />
<circle cx="197.36" cy="198.69" r="2" fill="#61dafb" opacity="0.3263832124237713" />
<circle cx="206.27" cy="203.26" r="2" fill="#61dafb" opacity="0.3627020543995081" />
<circle cx="196.46" cy="200.31" r="2" fill="#61dafb" opacity="0.33536266567837686" />
<circle cx="199.13" cy="195.35" r="2" fill="#61dafb" opacity="0.30868320139056843" />
<circle cx="202.66" cy="199.88" r="2" fill="#61dafb" opacity="0.32657938475162707" />
<circle cx="195.81" cy="197.03" r="2" fill="#61dafb" opacity="0.34186302316185824" />
<circle cx="202.73" cy="200.44" r="2" fill="#61dafb" opacity="0.32729443522526164" />
<circle cx="205.95" cy="199.68" r="2" fill="#61dafb" opacity="0.35945106383350084" />
<circle cx="201.13" cy="200.29" r="2" fill="#61dafb" opacity="0.31127362979386264" />
<circle cx="199.00" cy="202.15" r="2" fill="#61dafb" opacity="0.31002478235208786" />
<circle cx="207.98" cy="202.39" r="2" fill="#61dafb" opacity="0.37977277389823816" />
<circle cx="204.52" cy="205.81" r="2" fill="#61dafb" opacity="0.3451638641855918" />
<circle cx="206.04" cy="191.59" r="2" fill="#61dafb" opacity="0.3603927140292035" />
<circle cx="191.50" cy="201.65" r="2" fill="#61dafb" opacity="0.3849761386237282" />
<circle cx="195.61" cy="195.76" r="2" fill="#61dafb" opacity="0.34392913430196703" />
<circle cx="200.77" cy="203.01" r="2" fill="#61dafb" opacity="0.30767036934817854" />
<circle cx="201.68" cy="208.10" r="2" fill="#61dafb" opacity="0.3167703309215448" />
<circle cx="193.64" cy="200.39" r="2" fill="#61dafb" opacity="0.36355589042157205" />
<circle cx="189.68" cy="198.13" r="2" fill="#61dafb" opacity="0.403178992034022" />
<circle cx="196.68" cy="206.79" r="2" fill="#61dafb" opacity="0.3332442465133907" />
<circle cx="195.67" cy="210.04" r="2" fill="#61dafb" opacity="0.3432643247706598" />
<circle cx="209.72" cy="203.69" r="2" fill="#61dafb" opacity="0.3971906973257631" />
<circle cx="199.26" cy="196.86" r="2" fill="#61dafb" opacity="0.3074000642098774" />
<circle cx="199.96" cy="200.06" r="2" fill="#61dafb" opacity="0.3003842538868108" />
<circle cx="199.10" cy="200.10" r="2" fill="#61dafb" opacity="0.30904070280295004" />
<circle cx="195.47" cy="201.67" r="2" fill="#61dafb" opacity="0.34526055301560343" />
<circle cx="193.00" cy="206.50" r="2" fill="#61dafb" opacity="0.3700202549082169" />
<circle cx="199.60" cy="196.24" r="2" fill="#61dafb" opacity="0.30397856505152426" />
<circle cx="199.29" cy="198.89" r="2" fill="#61dafb" opacity="0.307055262585844" />
<circle cx="191.84" cy="205.45" r="2" fill="#61dafb" opacity="0.3816240157312826" />
<circle cx="200.15" cy="192.35" r="2" fill="#61dafb" opacity="0.3015110220898581" />
<circle cx="204.68" cy="199.02" r="2" fill="#61dafb" opacity="0.3467519187745396" />
<circle cx="195.32" cy="209.69" r="2" fill="#61dafb" opacity="0.34681462979435734" />
<circle cx="199.65" cy="200.71" r="2" fill="#61dafb" opacity="0.30352081631928596" />
<circle cx="197.95" cy="206.18" r="2" fill="#61dafb" opacity="0.3204846510480895" />
<circle cx="200.63" cy="200.08" r="2" fill="#61dafb" opacity="0.3063083186146201" />
<circle cx="199.55" cy="192.06" r="2" fill="#61dafb" opacity="0.3045352725546644" />
<circle cx="200.40" cy="200.42" r="2" fill="#61dafb" opacity="0.3039897790134492" />
<circle cx="190.98" cy="204.39" r="2" fill="#61dafb" opacity="0.39021960117951815" />
<circle cx="203.13" cy="192.07" r="2" fill="#61dafb" opacity="0.3312585722797203" />
<circle cx="202.26" cy="200.37" r="2" fill="#61dafb" opacity="0.32263286648311734" />
<circle cx="196.62" cy="199.23" r="2" fill="#61dafb" opacity="0.3338099036491513" />
<circle cx="197.31" cy="199.83" r="2" fill="#61dafb" opacity="0.32685897758766314" />
<circle cx="194.58" cy="196.72" r="2" fill="#61dafb" opacity="0.3541981483100005" />
<circle cx="197.75" cy="207.72" r="2" fill="#61dafb" opacity="0.3224934412299279" />
<circle cx="202.88" cy="202.71" r="2" fill="#61dafb" opacity="0.32883400844987287" />
<circle cx="196.46" cy="201.84" r="2" fill="#61dafb" opacity="0.33535455186679947" />
<circle cx="199.73" cy="197.55" r="2" fill="#61dafb" opacity="0.3027464216241579" />
<circle cx="199.39" cy="193.57" r="2" fill="#61dafb" opacity="0.3061123018568157" />
<circle cx="200.00" cy="198.02" r="2" fill="#61dafb" opacity="0.30001116313951254" />
<circle cx="204.67" cy="202.90" r="2" fill="#61dafb" opacity="0.3467492899324142" />
<circle cx="198.71" cy="201.11" r="2" fill="#61dafb" opacity="0.3129388813214078" />
<circle cx="197.24" cy="195.39" r="2" fill="#61dafb" opacity="0.327644024721504" />
<circle cx="198.96" cy="200.53" r="2" fill="#61dafb" opacity="0.31044091494196246" />
<circle cx="199.44" cy="200.66" r="2" fill="#61dafb" opacity="0.30560147565364587" />
<circle cx="199.60" cy="200.29" r="2" fill="#61dafb" opacity="0.30399761433160827" />
<circle cx="202.14" cy="199.84" r="2" fill="#61dafb" opacity="0.3214397691879759" />
<circle cx="203.11" cy="200.15" r="2" fill="#61dafb" opacity="0.33110425717974334" />
<circle cx="200.43" cy="202.16" r="2" fill="#61dafb" opacity="0.30425735901384166" />
<circle cx="200.45" cy="200.34" r="2" fill="#61dafb" opacity="0.30446022403717315" />
<circle cx="198.41" cy="198.22" r="2" fill="#61dafb" opacity="0.31588016787615764" />
<circle cx="197.88" cy="204.29" r="2" fill="#61dafb" opacity="0.3212180048380629" />
<circle cx="202.82" cy="200.37" r="2" fill="#61dafb" opacity="0.3282187368029759" />
<circle cx="201.06" cy="192.33" r="2" fill="#61dafb" opacity="0.3106349625081916" />
<circle cx="196.62" cy="202.99" r="2" fill="#61dafb" opacity="0.333781307164853" />
<circle cx="197.47" cy="199.01" r="2" fill="#61dafb" opacity="0.32525838251933004" />
<circle cx="208.07" cy="200.03" r="2" fill="#61dafb" opacity="0.3807371179092817" />
<circle cx="205.24" cy="193.00" r="2" fill="#61dafb" opacity="0.35243299192133254" />
<circle cx="202.75" cy="204.50" r="2" fill="#61dafb" opacity="0.32750277939754874" />
<circle cx="192.57" cy="197.14" r="2" fill="#61dafb" opacity="0.37432570723243086" />
<circle cx="194.38" cy="198.46" r="2" fill="#61dafb" opacity="0.35618516822249474" />
<circle cx="199.40" cy="199.63" r="2" fill="#61dafb" opacity="0.3059536664517805" />
<circle cx="195.10" cy="196.77" r="2" fill="#61dafb" opacity="0.34901404103177336" />
<circle cx="206.31" cy="200.06" r="2" fill="#61dafb" opacity="0.3631412953658212" />
<circle cx="200.25" cy="199.04" r="2" fill="#61dafb" opacity="0.30250577402948803" />
<circle cx="208.22" cy="200.58" r="2" fill="#61dafb" opacity="0.3822143108297015" />
<circle cx="205.54" cy="202.19" r="2" fill="#61dafb" opacity="0.35539828462925793" />
<circle cx="195.20" cy="203.24" r="2" fill="#61dafb" opacity="0.3479816476525082" />
<circle cx="203.37" cy="192.75" r="2" fill="#61dafb" opacity="0.33367261109807766" />
<circle cx="195.17" cy="206.59" r="2" fill="#61dafb" opacity="0.34832059974918916" />
<circle cx="193.49" cy="196.33" r="2" fill="#61dafb" opacity="0.36514722095926544" />
<circle cx="191.08" cy="199.47" r="2" fill="#61dafb" opacity="0.3892155831234158" />
<circle cx="200.19" cy="199.19" r="2" fill="#61dafb" opacity="0.3019176424252052" />
<circle cx="199.96" cy="200.16" r="2" fill="#61dafb" opacity="0.30039663414758516" />
<circle cx="197.95" cy="207.93" r="2" fill="#61dafb" opacity="0.32048538119347186" />
<circle cx="197.47" cy="200.18" r="2" fill="#61dafb" opacity="0.3253230603504924" />
<circle cx="201.08" cy="201.36" r="2" fill="#61dafb" opacity="0.3107681403348214" />
<circle cx="195.01" cy="199.23" r="2" fill="#61dafb" opacity="0.3498608632819916" />
<circle cx="199.62" cy="207.67" r="2" fill="#61dafb" opacity="0.3037745065091307" />
<circle cx="192.98" cy="196.94" r="2" fill="#61dafb" opacity="0.37017251103705506" />
<circle cx="199.27" cy="200.34" r="2" fill="#61dafb" opacity="0.30725403632959153" />
<circle cx="201.04" cy="203.58" r="2" fill="#61dafb" opacity="0.3103650356829824" />
<circle cx="198.06" cy="196.21" r="2" fill="#61dafb" opacity="0.31941077247121197" />
<circle cx="199.31" cy="205.46" r="2" fill="#61dafb" opacity="0.3069427162959997" />
<circle cx="200.81" cy="197.81" r="2" fill="#61dafb" opacity="0.30812926484205344" />
<circle cx="195.17" cy="206.42" r="2" fill="#61dafb" opacity="0.34826615534661326" />
<circle cx="198.91" cy="196.59" r="2" fill="#61dafb" opacity="0.31094675530025956" />
<circle cx="196.01" cy="204.20" r="2" fill="#61dafb" opacity="0.33993059799756165" />
<circle cx="199.51" cy="191.42" r="2" fill="#61dafb" opacity="0.30494477344258675" />
<circle cx="192.94" cy="203.35" r="2" fill="#61dafb" opacity="0.3705827263855128" />
<circle cx="206.18" cy="203.02" r="2" fill="#61dafb" opacity="0.36182986708184534" />
<circle cx="194.83" cy="204.39" r="2" fill="#61dafb" opacity="0.351710965050411" />
<circle cx="203.02" cy="199.56" r="2" fill="#61dafb" opacity="0.3302288404543366" />
<circle cx="193.12" cy="204.81" r="2" fill="#61dafb" opacity="0.3687718537596791" />
<circle cx="205.34" cy="200.42" r="2" fill="#61dafb" opacity="0.35344321507854015" />
<circle cx="201.83" cy="204.46" r="2" fill="#61dafb" opacity="0.3183218446855522" />
<circle cx="198.99" cy="196.77" r="2" fill="#61dafb" opacity="0.31011812099163794" />
<circle cx="201.71" cy="206.22" r="2" fill="#61dafb" opacity="0.31713506888491905" />
<circle cx="199.64" cy="200.95" r="2" fill="#61dafb" opacity="0.30357371084362683" />
<circle cx="204.35" cy="199.80" r="2" fill="#61dafb" opacity="0.3434741949347785" />
<circle cx="192.36" cy="202.82" r="2" fill="#61dafb" opacity="0.3763685515436808" />
<circle cx="197.41" cy="197.17" r="2" fill="#61dafb" opacity="0.32589709786748233" />
<circle cx="197.31" cy="195.54" r="2" fill="#61dafb" opacity="0.3269373197424002" />
<circle cx="201.60" cy="192.66" r="2" fill="#61dafb" opacity="0.3159881243056134" />
<circle cx="194.87" cy="195.07" r="2" fill="#61dafb" opacity="0.35134128259111586" />
<circle cx="197.23" cy="203.08" r="2" fill="#61dafb" opacity="0.3276881525511888" />
<circle cx="189.74" cy="205.43" r="2" fill="#61dafb" opacity="0.4026172378611086" />
<circle cx="197.18" cy="203.82" r="2" fill="#61dafb" opacity="0.32823803879465946" />
<circle cx="196.84" cy="200.41" r="2" fill="#61dafb" opacity="0.3315721561103618" />
<circle cx="192.12" cy="207.34" r="2" fill="#61dafb" opacity="0.378766474955081" />
<circle cx="205.95" cy="201.11" r="2" fill="#61dafb" opacity="0.35946980618337754" />
<circle cx="208.62" cy="200.41" r="2" fill="#61dafb" opacity="0.38624212872273783" />
<circle cx="204.11" cy="204.81" r="2" fill="#61dafb" opacity="0.34111901868519134" />
<circle cx="201.63" cy="207.04" r="2" fill="#61dafb" opacity="0.3162610897632697" />
<circle cx="194.41" cy="201.41" r="2" fill="#61dafb" opacity="0.35590228711492256" />
<circle cx="198.59" cy="201.15" r="2" fill="#61dafb" opacity="0.3141310292675486" />
<circle cx="201.32" cy="203.36" r="2" fill="#61dafb" opacity="0.3132270381950445" />
<circle cx="200.63" cy="203.00" r="2" fill="#61dafb" opacity="0.3063453764087681" />
<circle cx="195.70" cy="210.07" r="2" fill="#61dafb" opacity="0.34302820854880245" />
<circle cx="190.36" cy="204.02" r="2" fill="#61dafb" opacity="0.39643987024799265" />
<circle cx="199.98" cy="198.59" r="2" fill="#61dafb" opacity="0.3001604551418622" />
<circle cx="193.99" cy="198.28" r="2" fill="#61dafb" opacity="0.3601300286234001" />
<circle cx="197.78" cy="202.89" r="2" fill="#61dafb" opacity="0.3221789296197964" />
<circle cx="191.19" cy="201.20" r="2" fill="#61dafb" opacity="0.3880904016996914" />
<circle cx="191.07" cy="206.19" r="2" fill="#61dafb" opacity="0.3892901877732887" />
<circle cx="192.23" cy="209.06" r="2" fill="#61dafb" opacity="0.3776529726555672" />
<circle cx="197.57" cy="194.53" r="2" fill="#61dafb" opacity="0.32433469397787273" />
<circle cx="199.25" cy="191.30" r="2" fill="#61dafb" opacity="0.3075393518842117" />
<circle cx="200.74" cy="208.10" r="2" fill="#61dafb" opacity="0.30740959603007756" />
<circle cx="200.79" cy="206.79" r="2" fill="#61dafb" opacity="0.30794299407375253" />
<circle cx="200.32" cy="200.91" r="2" fill="#61dafb" opacity="0.30315542130372003" />
<circle cx="199.94" cy="194.05" r="2" fill="#61dafb" opacity="0.30064253140265174" />
<circle cx="202.96" cy="204.82" r="2" fill="#61dafb" opacity="0.32960230683492187" />
<circle cx="200.51" cy="201.34" r="2" fill="#61dafb" opacity="0.30513932422756324" />
<circle cx="194.58" cy="204.87" r="2" fill="#61dafb" opacity="0.35421083511497853" />
<circle cx="197.91" cy="198.95" r="2" fill="#61dafb" opacity="0.32090598519820074" />
<circle cx="200.31" cy="200.05" r="2" fill="#61dafb" opacity="0.3031202703520759" />
<circle cx="208.20" cy="200.87" r="2" fill="#61dafb" opacity="0.382014228197073" />
<circle cx="198.56" cy="203.01" r="2" fill="#61dafb" opacity="0.3143589803935901" />
<circle cx="191.78" cy="202.91" r="2" fill="#61dafb" opacity="0.3822326502702209" />
<circle cx="200.84" cy="202.56" r="2" fill="#61dafb" opacity="0.3083504082521173" />
<circle cx="196.84" cy="197.43" r="2" fill="#61dafb" opacity="0.33164625791919305" />
<circle cx="200.76" cy="198.65" r="2" fill="#61dafb" opacity="0.307562916134491" />
<circle cx="199.68" cy="201.02" r="2" fill="#61dafb" opacity="0.30318513962408816" />
<circle cx="203.11" cy="191.09" r="2" fill="#61dafb" opacity="0.33112890504736214" />
<circle cx="204.89" cy="201.77" r="2" fill="#61dafb" opacity="0.3489154379100416" />
<circle cx="194.72" cy="203.97" r="2" fill="#61dafb" opacity="0.3528253833537752" />
<circle cx="196.98" cy="201.12" r="2" fill="#61dafb" opacity="0.33023540750591907" />
<circle cx="200.16" cy="200.14" r="2" fill="#61dafb" opacity="0.30155566077847823" />
<circle cx="200.88" cy="200.25" r="2" fill="#61dafb" opacity="0.30875559490647253" />
<circle cx="199.48" cy="199.79" r="2" fill="#61dafb" opacity="0.30517132989649093" />
<circle cx="197.55" cy="194.72" r="2" fill="#61dafb" opacity="0.3244719332321474" />
<circle cx="199.29" cy="201.87" r="2" fill="#61dafb" opacity="0.3070896177890763" />
<circle cx="190.03" cy="201.86" r="2" fill="#61dafb" opacity="0.39970657646955343" />
<circle cx="203.22" cy="206.95" r="2" fill="#61dafb" opacity="0.33219712721375694" />
<circle cx="203.95" cy="199.93" r="2" fill="#61dafb" opacity="0.3395122237948639" />
<circle cx="202.24" cy="200.50" r="2" fill="#61dafb" opacity="0.32239025869754845" />
<circle cx="199.65" cy="200.04" r="2" fill="#61dafb" opacity="0.3035411676085947" />
<circle cx="199.04" cy="200.69" r="2" fill="#61dafb" opacity="0.3096445149424857" />
<circle cx="200.91" cy="196.13" r="2" fill="#61dafb" opacity="0.3091484904868713" />
<circle cx="198.94" cy="209.81" r="2" fill="#61dafb" opacity="0.3106175026583973" />
<circle cx="202.36" cy="196.56" r="2" fill="#61dafb" opacity="0.3236253501047919" />
<circle cx="199.04" cy="199.58" r="2" fill="#61dafb" opacity="0.30959896582115626" />
<circle cx="192.14" cy="202.70" r="2" fill="#61dafb" opacity="0.37855423053417314" />
<circle cx="198.25" cy="200.23" r="2" fill="#61dafb" opacity="0.3175256453767123" />
<circle cx="199.14" cy="197.68" r="2" fill="#61dafb" opacity="0.3085903201779599" />
<circle cx="206.42" cy="199.93" r="2" fill="#61dafb" opacity="0.3641554749467818" />
<circle cx="194.18" cy="207.20" r="2" fill="#61dafb" opacity="0.35824884333270485" />
<circle cx="198.78" cy="198.68" r="2" fill="#61dafb" opacity="0.31215945228288333" />
<circle cx="199.92" cy="194.65" r="2" fill="#61dafb" opacity="0.30079861383134254" />
<circle cx="199.07" cy="200.25" r="2" fill="#61dafb" opacity="0.30925754959956286" />
<circle cx="203.76" cy="192.38" r="2" fill="#61dafb" opacity="0.33763964429153076" />
<circle cx="201.05" cy="202.07" r="2" fill="#61dafb" opacity="0.31053786870927225" />
<circle cx="203.69" cy="201.23" r="2" fill="#61dafb" opacity="0.33690400406250925" />
<circle cx="204.85" cy="200.73" r="2" fill="#61dafb" opacity="0.3484696550038208" />
<circle cx="205.51" cy="190.68" r="2" fill="#61dafb" opacity="0.3551476583989508" />
<circle cx="191.61" cy="199.29" r="2" fill="#61dafb" opacity="0.38385345659513936" />
<circle cx="199.04" cy="203.61" r="2" fill="#61dafb" opacity="0.30960565275602026" />
<circle cx="195.25" cy="206.44" r="2" fill="#61dafb" opacity="0.3474576325265081" />
<circle cx="195.03" cy="199.66" r="2" fill="#61dafb" opacity="0.3496796151467295" />
<circle cx="201.57" cy="202.85" r="2" fill="#61dafb" opacity="0.31570428585127097" />
<circle cx="197.52" cy="194.42" r="2" fill="#61dafb" opacity="0.32476248370179644" />
<circle cx="194.33" cy="194.44" r="2" fill="#61dafb" opacity="0.3566560257036416" />
<circle cx="197.35" cy="204.99" r="2" fill="#61dafb" opacity="0.32651415070600087" />
<circle cx="192.86" cy="204.05" r="2" fill="#61dafb" opacity="0.37144644790555786" />
<circle cx="192.07" cy="206.69" r="2" fill="#61dafb" opacity="0.3793424826053617" />
<circle cx="200.87" cy="208.88" r="2" fill="#61dafb" opacity="0.308708633507265" />
<circle cx="201.35" cy="194.79" r="2" fill="#61dafb" opacity="0.3134906214378292" />
<circle cx="197.03" cy="203.75" r="2" fill="#61dafb" opacity="0.32968565450076576" />
<circle cx="199.35" cy="197.13" r="2" fill="#61dafb" opacity="0.3064688398651572" />
<circle cx="200.01" cy="205.59" r="2" fill="#61dafb" opacity="0.30005067730114093" />
<circle cx="194.03" cy="197.27" r="2" fill="#61dafb" opacity="0.3596540046775874" />
<circle cx="203.54" cy="205.13" r="2" fill="#61dafb" opacity="0.3354088600033887" />
<circle cx="200.30" cy="198.49" r="2" fill="#61dafb" opacity="0.302952105011773" />
<circle cx="192.35" cy="204.24" r="2" fill="#61dafb" opacity="0.3764610304036065" />
<circle cx="193.89" cy="204.75" r="2" fill="#61dafb" opacity="0.361118903400413" />
<circle cx="199.91" cy="200.57" r="2" fill="#61dafb" opacity="0.30089791029880514" />
<circle cx="208.88" cy="203.67" r="2" fill="#61dafb" opacity="0.3887964532475693" />
<circle cx="196.70" cy="201.90" r="2" fill="#61dafb" opacity="0.33295361506005633" />
<circle cx="190.30" cy="201.22" r="2" fill="#61dafb" opacity="0.3969972933784503" />
<circle cx="200.00" cy="199.97" r="2" fill="#61dafb" opacity="0.3000442975908935" />
<circle cx="196.12" cy="205.51" r="2" fill="#61dafb" opacity="0.3388110232635319" />
<circle cx="194.23" cy="197.74" r="2" fill="#61dafb" opacity="0.3576739978804417" />
<circle cx="199.38" cy="199.22" r="2" fill="#61dafb" opacity="0.3062498257007412" />
<circle cx="200.00" cy="194.88" r="2" fill="#61dafb" opacity="0.30004370868299846" />
<circle cx="198.88" cy="200.89" r="2" fill="#61dafb" opacity="0.3112098285380663" />
<circle cx="200.06" cy="200.08" r="2" fill="#61dafb" opacity="0.3005515411110338" />
<circle cx="197.32" cy="196.15" r="2" fill="#61dafb" opacity="0.3267736493956723" />
<circle cx="196.62" cy="194.38" r="2" fill="#61dafb" opacity="0.3338222318631809" />
<circle cx="200.58" cy="200.50" r="2" fill="#61dafb" opacity="0.3057859610718621" />
<circle cx="197.60" cy="207.70" r="2" fill="#61dafb" opacity="0.32400516660224016" />
<circle cx="202.96" cy="201.13" r="2" fill="#61dafb" opacity="0.32957008079817307" />
<circle cx="200.85" cy="195.57" r="2" fill="#61dafb" opacity="0.30845290245712365" />
<circle cx="195.32" cy="197.68" r="2" fill="#61dafb" opacity="0.3467852871226661" />
<circle cx="198.70" cy="202.97" r="2" fill="#61dafb" opacity="0.31295429322894125" />
<circle cx="195.47" cy="207.89" r="2" fill="#61dafb" opacity="0.34533373118823085" />
<circle cx="204.24" cy="192.00" r="2" fill="#61dafb" opacity="0.3423798812180623" />
<circle cx="198.96" cy="200.77" r="2" fill="#61dafb" opacity="0.3103828328284323" />
<circle cx="199.70" cy="199.46" r="2" fill="#61dafb" opacity="0.3030056826865135" />
<circle cx="201.99" cy="202.53" r="2" fill="#61dafb" opacity="0.31988330033237794" />
<circle cx="196.18" cy="197.62" r="2" fill="#61dafb" opacity="0.33819127301086827" />
<circle cx="194.82" cy="202.93" r="2" fill="#61dafb" opacity="0.35177813222784227" />
<circle cx="204.55" cy="203.78" r="2" fill="#61dafb" opacity="0.3455257347183753" />
<circle cx="199.20" cy="191.94" r="2" fill="#61dafb" opacity="0.3079962301409296" />
<circle cx="202.66" cy="202.74" r="2" fill="#61dafb" opacity="0.3266096454947259" />
<circle cx="198.28" cy="203.44" r="2" fill="#61dafb" opacity="0.31723890931482446" />
<circle cx="196.06" cy="206.93" r="2" fill="#61dafb" opacity="0.3393959766269871" />
<circle cx="196.32" cy="206.25" r="2" fill="#61dafb" opacity="0.33680828367216437" />
<circle cx="201.24" cy="202.58" r="2" fill="#61dafb" opacity="0.3123915973815288" />
<circle cx="199.69" cy="202.96" r="2" fill="#61dafb" opacity="0.3030665928792901" />
<circle cx="197.32" cy="198.59" r="2" fill="#61dafb" opacity="0.3267778976068347" />
<circle cx="197.33" cy="202.12" r="2" fill="#61dafb" opacity="0.3267036236035341" />
<circle cx="199.97" cy="200.01" r="2" fill="#61dafb" opacity="0.30027544156962693" />
<circle cx="207.19" cy="200.71" r="2" fill="#61dafb" opacity="0.37190090792465413" />
<circle cx="198.61" cy="200.42" r="2" fill="#61dafb" opacity="0.31390554318793434" />
<circle cx="203.86" cy="201.27" r="2" fill="#61dafb" opacity="0.3385684716367522" />
<circle cx="200.13" cy="199.20" r="2" fill="#61dafb" opacity="0.3012902523756413" />
<circle cx="201.14" cy="200.97" r="2" fill="#61dafb" opacity="0.3114044841392597" />
<circle cx="200.17" cy="200.09" r="2" fill="#61dafb" opacity="0.3016819219119237" />
<circle cx="197.81" cy="208.07" r="2" fill="#61dafb" opacity="0.3219170925560485" />
<circle cx="198.56" cy="197.19" r="2" fill="#61dafb" opacity="0.314419216575733" />
<circle cx="198.57" cy="199.59" r="2" fill="#61dafb" opacity="0.3142910313782718" />
<circle cx="202.87" cy="190.86" r="2" fill="#61dafb" opacity="0.32870689270622305" />
<circle cx="198.63" cy="203.13" r="2" fill="#61dafb" opacity="0.3136857535375631" />
<circle cx="197.09" cy="208.64" r="2" fill="#61dafb" opacity="0.32913880492676906" />
<circle cx="197.94" cy="207.41" r="2" fill="#61dafb" opacity="0.32061119855007186" />
<circle cx="202.48" cy="207.73" r="2" fill="#61dafb" opacity="0.32481591307771585" />
<circle cx="190.73" cy="198.61" r="2" fill="#61dafb" opacity="0.3926554573441364" />
<circle cx="202.32" cy="200.82" r="2" fill="#61dafb" opacity="0.323199500404952" />
<circle cx="201.27" cy="196.23" r="2" fill="#61dafb" opacity="0.312661202045838" />
<circle cx="193.57" cy="196.62" r="2" fill="#61dafb" opacity="0.36425218381162305" />
<circle cx="197.25" cy="207.71" r="2" fill="#61dafb" opacity="0.3274862519848771" />
<circle cx="194.20" cy="206.29" r="2" fill="#61dafb" opacity="0.35801424546928273" />
<circle cx="199.56" cy="200.92" r="2" fill="#61dafb" opacity="0.30443374130253403" />
<circle cx="196.38" cy="202.22" r="2" fill="#61dafb" opacity="0.33620646582050845" />
<circle cx="201.62" cy="201.23" r="2" fill="#61dafb" opacity="0.3161832789519142" />
<circle cx="194.46" cy="192.52" r="2" fill="#61dafb" opacity="0.35538792140287034" />
<circle cx="197.29" cy="195.60" r="2" fill="#61dafb" opacity="0.3271309265338055" />
<circle cx="204.19" cy="203.68" r="2" fill="#61dafb" opacity="0.34186496820917506" />
<circle cx="200.75" cy="210.23" r="2" fill="#61dafb" opacity="0.307450559899288" />
<circle cx="199.99" cy="195.74" r="2" fill="#61dafb" opacity="0.3001351657194576" />
<circle cx="196.84" cy="207.03" r="2" fill="#61dafb" opacity="0.3315581217939835" />
<circle cx="200.99" cy="196.90" r="2" fill="#61dafb" opacity="0.30988408785753313" />
<circle cx="200.20" cy="202.41" r="2" fill="#61dafb" opacity="0.3020396704885443" />
<circle cx="197.10" cy="199.79" r="2" fill="#61dafb" opacity="0.32902312395046174" />
<circle cx="200.99" cy="202.29" r="2" fill="#61dafb" opacity="0.30989717772429326" />
<circle cx="202.22" cy="206.03" r="2" fill="#61dafb" opacity="0.3221627292843317" />
<circle cx="193.57" cy="193.34" r="2" fill="#61dafb" opacity="0.36431654223518445" />
<circle cx="204.92" cy="201.40" r="2" fill="#61dafb" opacity="0.3492210461016631" />
<circle cx="204.37" cy="206.24" r="2" fill="#61dafb" opacity="0.34373081154116764" />
<circle cx="201.54" cy="199.89" r="2" fill="#61dafb" opacity="0.315373845572227" />
<circle cx="193.55" cy="208.47" r="2" fill="#61dafb" opacity="0.36452356758356086" />
<circle cx="202.30" cy="192.39" r="2" fill="#61dafb" opacity="0.3229601616995623" />
<circle cx="198.69" cy="207.91" r="2" fill="#61dafb" opacity="0.31313022372799676" />
<circle cx="197.82" cy="205.64" r="2" fill="#61dafb" opacity="0.3217766357840388" />
<circle cx="201.10" cy="191.10" r="2" fill="#61dafb" opacity="0.3109613912713576" />
<circle cx="195.11" cy="207.30" r="2" fill="#61dafb" opacity="0.34885001985750236" />
<circle cx="194.36" cy="203.33" r="2" fill="#61dafb" opacity="0.35637995635186015" />
<circle cx="195.52" cy="205.85" r="2" fill="#61dafb" opacity="0.3447701702740037" />
<circle cx="199.33" cy="199.23" r="2" fill="#61dafb" opacity="0.3066939419931402" />
<circle cx="196.00" cy="201.16" r="2" fill="#61dafb" opacity="0.34000925161933304" />
<circle cx="194.77" cy="201.15" r="2" fill="#61dafb" opacity="0.3523187768935271" />
<circle cx="191.48" cy="200.93" r="2" fill="#61dafb" opacity="0.38518921595053685" />
<circle cx="194.70" cy="197.59" r="2" fill="#61dafb" opacity="0.35299051021680755" />
<circle cx="203.93" cy="203.70" r="2" fill="#61dafb" opacity="0.33927845934544243" />
<circle cx="204.83" cy="200.06" r="2" fill="#61dafb" opacity="0.3482713394036016" />
<circle cx="201.97" cy="199.99" r="2" fill="#61dafb" opacity="0.3196935005629625" />
<circle cx="198.39" cy="208.77" r="2" fill="#61dafb" opacity="0.31605055239324586" />
<circle cx="200.58" cy="204.08" r="2" fill="#61dafb" opacity="0.30582566000750966" />
<circle cx="197.89" cy="200.18" r="2" fill="#61dafb" opacity="0.32109533601388035" />
<circle cx="200.61" cy="202.31" r="2" fill="#61dafb" opacity="0.3061280237936696" />
<circle cx="194.20" cy="207.36" r="2" fill="#61dafb" opacity="0.3579594283088582" />
<circle cx="193.33" cy="206.91" r="2" fill="#61dafb" opacity="0.3666746607391917" />
<circle cx="198.87" cy="199.54" r="2" fill="#61dafb" opacity="0.3112667040474353" />
<circle cx="203.24" cy="196.04" r="2" fill="#61dafb" opacity="0.3323795145307067" />
<circle cx="194.52" cy="199.27" r="2" fill="#61dafb" opacity="0.35483236956924735" />
<circle cx="199.81" cy="190.89" r="2" fill="#61dafb" opacity="0.30193929599956404" />
<circle cx="197.50" cy="207.47" r="2" fill="#61dafb" opacity="0.3250291132534888" />
<circle cx="195.20" cy="201.94" r="2" fill="#61dafb" opacity="0.3479725675018181" />
<circle cx="200.77" cy="201.09" r="2" fill="#61dafb" opacity="0.3077115318493297" />
<circle cx="194.90" cy="200.20" r="2" fill="#61dafb" opacity="0.35104859621119144" />
<circle cx="198.55" cy="199.09" r="2" fill="#61dafb" opacity="0.3145153220588692" />
<circle cx="200.40" cy="208.23" r="2" fill="#61dafb" opacity="0.3040015642251743" />
<circle cx="200.78" cy="195.16" r="2" fill="#61dafb" opacity="0.3078487978078261" />
<circle cx="199.97" cy="200.12" r="2" fill="#61dafb" opacity="0.30031225470793615" />
<circle cx="192.52" cy="196.12" r="2" fill="#61dafb" opacity="0.3748310694997452" />
<circle cx="199.25" cy="199.24" r="2" fill="#61dafb" opacity="0.30752254021581604" />
<circle cx="201.98" cy="208.18" r="2" fill="#61dafb" opacity="0.3197646398037219" />
<circle cx="194.79" cy="210.18" r="2" fill="#61dafb" opacity="0.3521349285266233" />
<circle cx="199.65" cy="200.48" r="2" fill="#61dafb" opacity="0.30354798020001705" />
<circle cx="201.10" cy="201.39" r="2" fill="#61dafb" opacity="0.310955912644772" />
<circle cx="202.20" cy="191.12" r="2" fill="#61dafb" opacity="0.32200021263984374" />
<circle cx="199.62" cy="190.49" r="2" fill="#61dafb" opacity="0.30384352637418766" />
<circle cx="203.20" cy="207.31" r="2" fill="#61dafb" opacity="0.33199943500643386" />
<circle cx="202.75" cy="201.10" r="2" fill="#61dafb" opacity="0.3275018226146207" />
<circle cx="198.16" cy="200.25" r="2" fill="#61dafb" opacity="0.3183850342912724" />
<circle cx="201.52" cy="205.45" r="2" fill="#61dafb" opacity="0.31523773140635364" />
<circle cx="196.96" cy="198.59" r="2" fill="#61dafb" opacity="0.3304062324681182" />
<circle cx="191.67" cy="198.64" r="2" fill="#61dafb" opacity="0.38327104708905535" />
<circle cx="199.44" cy="200.54" r="2" fill="#61dafb" opacity="0.30557459758398214" />
<circle cx="199.21" cy="200.63" r="2" fill="#61dafb" opacity="0.30794516218808715" />
<circle cx="201.09" cy="208.97" r="2" fill="#61dafb" opacity="0.31085052935335666" />
<circle cx="189.66" cy="201.02" r="2" fill="#61dafb" opacity="0.4033840558721329" />
<circle cx="194.45" cy="202.35" r="2" fill="#61dafb" opacity="0.3554641824579889" />
<circle cx="196.60" cy="204.63" r="2" fill="#61dafb" opacity="0.3339992543706047" />
<circle cx="201.44" cy="200.10" r="2" fill="#61dafb" opacity="0.3144040365167664" />
<circle cx="199.16" cy="193.02" r="2" fill="#61dafb" opacity="0.30842479275317375" />
<circle cx="200.33" cy="197.35" r="2" fill="#61dafb" opacity="0.30334186356790144" />
<circle cx="193.28" cy="195.66" r="2" fill="#61dafb" opacity="0.36719735840329804" />
<circle cx="198.52" cy="209.90" r="2" fill="#61dafb" opacity="0.3148430980124387" />
<circle cx="201.35" cy="196.92" r="2" fill="#61dafb" opacity="0.3135168249709129" />
<circle cx="191.42" cy="205.70" r="2" fill="#61dafb" opacity="0.38583745925314716" />
<circle cx="197.14" cy="198.60" r="2" fill="#61dafb" opacity="0.3285761548503068" />
<circle cx="197.85" cy="199.46" r="2" fill="#61dafb" opacity="0.3215005762819503" />
<circle cx="197.91" cy="202.56" r="2" fill="#61dafb" opacity="0.3208708143965053" />
<circle cx="197.89" cy="195.56" r="2" fill="#61dafb" opacity="0.32109138376713237" />
<circle cx="199.28" cy="196.88" r="2" fill="#61dafb" opacity="0.3071819271670964" />
<circle cx="195.86" cy="201.92" r="2" fill="#61dafb" opacity="0.3413600495362969" />
<circle cx="201.74" cy="209.98" r="2" fill="#61dafb" opacity="0.31735351396082223" />
<circle cx="198.80" cy="199.86" r="2" fill="#61dafb" opacity="0.3120206367539055" />
<circle cx="208.47" cy="199.74" r="2" fill="#61dafb" opacity="0.38471402224604756" />
<circle cx="199.84" cy="199.58" r="2" fill="#61dafb" opacity="0.3015551777008871" />
<circle cx="194.02" cy="205.07" r="2" fill="#61dafb" opacity="0.35979838251910207" />
<circle cx="200.93" cy="203.04" r="2" fill="#61dafb" opacity="0.30925534484463824" />
<circle cx="200.39" cy="197.04" r="2" fill="#61dafb" opacity="0.30386733543027583" />
<circle cx="191.83" cy="195.26" r="2" fill="#61dafb" opacity="0.38173236672674965" />
<circle cx="206.64" cy="201.65" r="2" fill="#61dafb" opacity="0.3664403977232734" />
<circle cx="201.94" cy="195.19" r="2" fill="#61dafb" opacity="0.3194296097757483" />
<circle cx="193.18" cy="198.77" r="2" fill="#61dafb" opacity="0.36818549036435533" />
<circle cx="200.73" cy="206.13" r="2" fill="#61dafb" opacity="0.30728129230633905" />
<circle cx="199.66" cy="201.79" r="2" fill="#61dafb" opacity="0.30341014831380014" />
<circle cx="199.45" cy="195.26" r="2" fill="#61dafb" opacity="0.30550890724765295" />
<circle cx="199.97" cy="203.87" r="2" fill="#61dafb" opacity="0.3002595362124698" />
<circle cx="189.91" cy="198.45" r="2" fill="#61dafb" opacity="0.4008505338417785" />
<circle cx="199.27" cy="199.92" r="2" fill="#61dafb" opacity="0.3072879526548587" />
<circle cx="199.20" cy="199.23" r="2" fill="#61dafb" opacity="0.3080075047027367" />
<circle cx="201.40" cy="205.78" r="2" fill="#61dafb" opacity="0.3139981588637678" />
<circle cx="201.33" cy="196.89" r="2" fill="#61dafb" opacity="0.31327615156642696" />
<circle cx="199.32" cy="200.35" r="2" fill="#61dafb" opacity="0.30683531139834563" />
<circle cx="201.53" cy="202.83" r="2" fill="#61dafb" opacity="0.31526475125353115" />
<circle cx="203.73" cy="194.27" r="2" fill="#61dafb" opacity="0.33725021899576263" />
<circle cx="198.48" cy="203.28" r="2" fill="#61dafb" opacity="0.3152358680452089" />
<circle cx="194.78" cy="200.66" r="2" fill="#61dafb" opacity="0.35218305280956946" />
<circle cx="196.37" cy="209.36" r="2" fill="#61dafb" opacity="0.3363101650128897" />
<circle cx="194.87" cy="197.24" r="2" fill="#61dafb" opacity="0.3512678894541613" />
<circle cx="205.82" cy="190.50" r="2" fill="#61dafb" opacity="0.3582134352086129" />
<circle cx="200.10" cy="201.02" r="2" fill="#61dafb" opacity="0.30102398033818384" />
<circle cx="201.01" cy="200.70" r="2" fill="#61dafb" opacity="0.31007706925850387" />
<circle cx="197.22" cy="202.09" r="2" fill="#61dafb" opacity="0.3278284403300902" />
<circle cx="197.40" cy="204.32" r="2" fill="#61dafb" opacity="0.3260210216734702" />
<circle cx="195.34" cy="201.49" r="2" fill="#61dafb" opacity="0.3466186519513627" />
<circle cx="189.68" cy="202.21" r="2" fill="#61dafb" opacity="0.40319354260935786" />
<circle cx="198.47" cy="200.51" r="2" fill="#61dafb" opacity="0.31526208352862956" />
<circle cx="200.15" cy="200.28" r="2" fill="#61dafb" opacity="0.30145732257301244" />
<circle cx="199.08" cy="201.62" r="2" fill="#61dafb" opacity="0.3092319326898452" />
<circle cx="198.49" cy="200.87" r="2" fill="#61dafb" opacity="0.31507744845067387" />
<circle cx="196.37" cy="198.54" r="2" fill="#61dafb" opacity="0.33632795618571926" />
<circle cx="194.34" cy="200.94" r="2" fill="#61dafb" opacity="0.35659946422874506" />
<circle cx="203.43" cy="205.38" r="2" fill="#61dafb" opacity="0.3342673280380547" />
<circle cx="194.07" cy="208.21" r="2" fill="#61dafb" opacity="0.3592732846266265" />
<circle cx="196.63" cy="198.40" r="2" fill="#61dafb" opacity="0.3336914952844804" />
<circle cx="196.14" cy="209.49" r="2" fill="#61dafb" opacity="0.3385820440132948" />
<circle cx="191.89" cy="201.78" r="2" fill="#61dafb" opacity="0.3810871366566576" />
<circle cx="196.72" cy="202.99" r="2" fill="#61dafb" opacity="0.3328457169073603" />
<circle cx="206.19" cy="205.72" r="2" fill="#61dafb" opacity="0.3618832431047794" />
<circle cx="197.00" cy="201.55" r="2" fill="#61dafb" opacity="0.3299737489328771" />
<circle cx="200.67" cy="201.62" r="2" fill="#61dafb" opacity="0.3067217649857604" />
<circle cx="203.36" cy="204.43" r="2" fill="#61dafb" opacity="0.33360097251656595" />
<circle cx="197.67" cy="194.89" r="2" fill="#61dafb" opacity="0.32326001912241337" />
<circle cx="199.23" cy="197.84" r="2" fill="#61dafb" opacity="0.30772123651899397" />
<circle cx="200.40" cy="200.55" r="2" fill="#61dafb" opacity="0.3040167395158969" />
<circle cx="198.21" cy="209.01" r="2" fill="#61dafb" opacity="0.3179066188198435" />
<circle cx="199.41" cy="201.99" r="2" fill="#61dafb" opacity="0.30585967156163596" />
<circle cx="195.88" cy="208.44" r="2" fill="#61dafb" opacity="0.3411500156137521" />
<circle cx="196.38" cy="201.03" r="2" fill="#61dafb" opacity="0.3362152433147617" />
<circle cx="200.55" cy="198.69" r="2" fill="#61dafb" opacity="0.3055216079629531" />
<circle cx="193.81" cy="204.41" r="2" fill="#61dafb" opacity="0.3618753946543844" />
<circle cx="199.34" cy="205.21" r="2" fill="#61dafb" opacity="0.3066027726180831" />
<circle cx="197.15" cy="198.13" r="2" fill="#61dafb" opacity="0.32849461444330175" />
<circle cx="210.03" cy="199.76" r="2" fill="#61dafb" opacity="0.40026155963929205" />
<circle cx="197.30" cy="208.45" r="2" fill="#61dafb" opacity="0.32700776002714554" />
<circle cx="191.94" cy="200.09" r="2" fill="#61dafb" opacity="0.38062650279681287" />
<circle cx="202.56" cy="206.05" r="2" fill="#61dafb" opacity="0.3255928162913945" />
<circle cx="198.71" cy="189.95" r="2" fill="#61dafb" opacity="0.31293478562704247" />
<circle cx="203.33" cy="200.80" r="2" fill="#61dafb" opacity="0.3333265464120809" />
<circle cx="206.27" cy="200.06" r="2" fill="#61dafb" opacity="0.362712111329203" />
<circle cx="200.01" cy="194.80" r="2" fill="#61dafb" opacity="0.30005069122106093" />
<circle cx="200.78" cy="206.77" r="2" fill="#61dafb" opacity="0.3078311681135064" />
<circle cx="200.49" cy="202.78" r="2" fill="#61dafb" opacity="0.30492401842906003" />
<circle cx="200.34" cy="208.43" r="2" fill="#61dafb" opacity="0.30341533398807463" />
<circle cx="191.83" cy="203.81" r="2" fill="#61dafb" opacity="0.38165790968617086" />
<circle cx="194.37" cy="202.27" r="2" fill="#61dafb" opacity="0.3562861997717355" />
<circle cx="190.32" cy="202.41" r="2" fill="#61dafb" opacity="0.3968081342787343" />
<circle cx="199.94" cy="200.13" r="2" fill="#61dafb" opacity="0.3005518991196634" />
<circle cx="201.67" cy="206.57" r="2" fill="#61dafb" opacity="0.31668914774392687" />
<circle cx="199.26" cy="202.77" r="2" fill="#61dafb" opacity="0.3073691831691708" />
<circle cx="198.87" cy="196.90" r="2" fill="#61dafb" opacity="0.3113019482409906" />
<circle cx="197.69" cy="197.63" r="2" fill="#61dafb" opacity="0.32310131221478566" />
<circle cx="195.22" cy="204.21" r="2" fill="#61dafb" opacity="0.34782025271524475" />
<circle cx="201.05" cy="195.11" r="2" fill="#61dafb" opacity="0.3105413067752351" />
<circle cx="198.43" cy="193.59" r="2" fill="#61dafb" opacity="0.31566119863540676" />
<circle cx="196.19" cy="201.86" r="2" fill="#61dafb" opacity="0.33812000202802506" />
<circle cx="203.96" cy="193.76" r="2" fill="#61dafb" opacity="0.33958029575841386" />
<circle cx="194.67" cy="202.29" r="2" fill="#61dafb" opacity="0.3533306452174897" />
<circle cx="206.31" cy="199.88" r="2" fill="#61dafb" opacity="0.3630576800329596" />
<circle cx="208.94" cy="199.57" r="2" fill="#61dafb" opacity="0.38943958716186045" />
<circle cx="202.17" cy="207.95" r="2" fill="#61dafb" opacity="0.3217020280067976" />
<circle cx="195.30" cy="199.45" r="2" fill="#61dafb" opacity="0.3470315235342196" />
<circle cx="207.18" cy="203.82" r="2" fill="#61dafb" opacity="0.3718164175296589" />
<circle cx="196.40" cy="202.27" r="2" fill="#61dafb" opacity="0.336035547121213" />
<circle cx="201.05" cy="200.03" r="2" fill="#61dafb" opacity="0.3105172970891158" />
<circle cx="204.91" cy="202.30" r="2" fill="#61dafb" opacity="0.34911780661443403" />
<circle cx="204.54" cy="205.93" r="2" fill="#61dafb" opacity="0.3453755661848052" />
<circle cx="202.92" cy="199.37" r="2" fill="#61dafb" opacity="0.3292111302153196" />
<circle cx="191.54" cy="206.30" r="2" fill="#61dafb" opacity="0.38459704808054707" />
<circle cx="194.97" cy="209.54" r="2" fill="#61dafb" opacity="0.35031966007506576" />
<circle cx="199.26" cy="198.65" r="2" fill="#61dafb" opacity="0.30736072344231175" />
<circle cx="208.70" cy="202.80" r="2" fill="#61dafb" opacity="0.3870462674936007" />
<circle cx="194.41" cy="199.99" r="2" fill="#61dafb" opacity="0.35589525319662274" />
<circle cx="198.98" cy="200.22" r="2" fill="#61dafb" opacity="0.31015079263995526" />
<circle cx="194.83" cy="202.33" r="2" fill="#61dafb" opacity="0.3516702582626199" />
<circle cx="198.55" cy="201.64" r="2" fill="#61dafb" opacity="0.3145250905276056" />
<circle cx="200.69" cy="203.53" r="2" fill="#61dafb" opacity="0.3068729730465004" />
<circle cx="194.27" cy="198.70" r="2" fill="#61dafb" opacity="0.357265182774285" />
<circle cx="196.42" cy="206.71" r="2" fill="#61dafb" opacity="0.3357589453377585" />
<circle cx="203.00" cy="200.28" r="2" fill="#61dafb" opacity="0.3299566175065592" />
<circle cx="200.05" cy="199.83" r="2" fill="#61dafb" opacity="0.300482228352742" />
<circle cx="198.11" cy="204.08" r="2" fill="#61dafb" opacity="0.3188657539884272" />
<circle cx="204.81" cy="208.02" r="2" fill="#61dafb" opacity="0.34813652660480954" />
<circle cx="206.92" cy="200.42" r="2" fill="#61dafb" opacity="0.36916326461118754" />
<circle cx="200.79" cy="205.96" r="2" fill="#61dafb" opacity="0.30786916929335395" />
<circle cx="192.81" cy="200.97" r="2" fill="#61dafb" opacity="0.3719249801866577" />
<circle cx="194.81" cy="200.54" r="2" fill="#61dafb" opacity="0.35191239336324653" />
<circle cx="202.58" cy="189.89" r="2" fill="#61dafb" opacity="0.325760645234646" />
<circle cx="199.87" cy="200.30" r="2" fill="#61dafb" opacity="0.3012887479746331" />
<circle cx="200.57" cy="199.95" r="2" fill="#61dafb" opacity="0.3057001336414874" />
<circle cx="201.07" cy="204.07" r="2" fill="#61dafb" opacity="0.31074151951437284" />
<circle cx="196.27" cy="199.35" r="2" fill="#61dafb" opacity="0.33729748577700314" />
<circle cx="196.62" cy="201.48" r="2" fill="#61dafb" opacity="0.3338312392075026" />
<circle cx="196.03" cy="205.38" r="2" fill="#61dafb" opacity="0.33972098157768427" />
<circle cx="206.28" cy="200.07" r="2" fill="#61dafb" opacity="0.36279520452058844" />
<circle cx="196.13" cy="207.60" r="2" fill="#61dafb" opacity="0.3386721033009551" />
<circle cx="201.23" cy="201.34" r="2" fill="#61dafb" opacity="0.3123231912400312" />
<circle cx="196.66" cy="199.32" r="2" fill="#61dafb" opacity="0.3334385223220116" />
<circle cx="199.55" cy="196.13" r="2" fill="#61dafb" opacity="0.3045111926723431" />
<circle cx="199.95" cy="199.82" r="2" fill="#61dafb" opacity="0.3005487515571833" />
<circle cx="202.48" cy="195.18" r="2" fill="#61dafb" opacity="0.3247561387890909" />
<circle cx="199.08" cy="201.14" r="2" fill="#61dafb" opacity="0.3092020747737847" />
<circle cx="195.58" cy="201.50" r="2" fill="#61dafb" opacity="0.34423351622179754" />
<circle cx="199.65" cy="196.88" r="2" fill="#61dafb" opacity="0.3035062842727606" />
<circle cx="199.64" cy="200.54" r="2" fill="#61dafb" opacity="0.30357517074126456" />
<circle cx="196.90" cy="199.95" r="2" fill="#61dafb" opacity="0.33098216683451753" />
<circle cx="199.12" cy="196.17" r="2" fill="#61dafb" opacity="0.30878648421178007" />
<circle cx="190.81" cy="198.57" r="2" fill="#61dafb" opacity="0.3919139998054521" />
<circle cx="200.14" cy="202.00" r="2" fill="#61dafb" opacity="0.30142772310219634" />
<circle cx="204.46" cy="200.84" r="2" fill="#61dafb" opacity="0.3446146589860486" />
<circle cx="198.37" cy="202.44" r="2" fill="#61dafb" opacity="0.31631753731938583" />
<circle cx="194.16" cy="195.56" r="2" fill="#61dafb" opacity="0.35837129172383747" />
<circle cx="199.53" cy="199.58" r="2" fill="#61dafb" opacity="0.304655233870433" />
<circle cx="198.61" cy="196.30" r="2" fill="#61dafb" opacity="0.31394632734012" />
<circle cx="192.43" cy="196.18" r="2" fill="#61dafb" opacity="0.3756655012432566" />
    </svg>